<svg width="151" height="79" xmlns="http://www.w3.org/2000/svg"><g fill="none" fill-rule="evenodd"><path d="M69.336 1.62s1.447 10.006-2.938 16.305C62.673 23.282 56 23.554 56 23.554c2.824.902 5.68 1.37 8.5 1.446h1.624C77.3 24.703 87.68 18.241 92.85 7.938c.097-.19.15-.446.15-.75v-.04C92.983 5.032 90.526.701 82.568.056 82.078.02 81.558 0 81.026 0c-5.078 0-11.69 1.62-11.69 1.62" fill="#CC171A"/><path d="M20.018 49.082c0-4.214-3.195-7.352-7.471-7.352s-7.472 3.138-7.472 7.352c0 4.215 3.196 7.353 7.472 7.353s7.471-3.138 7.471-7.353zM25 37.61v22.338C25 67.487 19.079 71 12.923 71c-5.17 0-9.163-1.92-11.137-5.666l4.37-2.53c1.034 2.014 2.772 3.607 6.86 3.607 4.371 0 7.002-2.389 7.002-6.464v-2.856c-1.785 2.53-4.558 4.074-8.176 4.074C5.216 61.165 0 55.78 0 49.082 0 42.386 5.216 37 11.842 37c3.618 0 6.39 1.545 8.176 4.075v-3.466H25zM43 37v5.517c-3.252-.236-7.054 1.32-7.054 6.6V61H31V37.424h4.946v3.961C37.32 38.18 40.114 37 43 37m20.92 10.504c-.699-4.088-3.634-5.847-6.664-5.847-3.774 0-6.338 2.282-7.036 5.847h13.7zm-6.198 9.79c2.797 0 4.894-1.283 6.012-2.946l4.148 2.471C65.738 60.051 62.243 62 57.676 62 49.986 62 45 56.63 45 49.5 45 42.465 49.986 37 57.303 37 64.247 37 69 42.703 69 49.547c0 .713-.093 1.474-.186 2.14H50.266c.792 3.707 3.728 5.607 7.456 5.607zM73 61h5V37h-5zm32-14.363V61h-4.985V47.152c0-3.556-2.03-5.427-5.17-5.427-3.276 0-5.86 1.965-5.86 6.737V61H84V37.608h4.984v2.994C90.507 38.169 93 37 96.138 37c5.17 0 8.862 3.556 8.862 9.637m23.92.867c-.699-4.088-3.634-5.847-6.664-5.847-3.774 0-6.337 2.282-7.036 5.847h13.7zm-6.198 9.79c2.796 0 4.894-1.283 6.012-2.946l4.148 2.471C130.738 60.051 127.243 62 122.676 62 114.986 62 110 56.63 110 49.5c0-7.035 4.987-12.5 12.303-12.5C129.247 37 134 42.703 134 49.547c0 .713-.093 1.474-.186 2.14h-18.548c.793 3.707 3.728 5.607 7.456 5.607zM151 37v5.517c-3.252-.236-7.054 1.32-7.054 6.6V61H139V37.424h4.946v3.961C145.32 38.18 148.114 37 151 37M44.826 74.3c0-.71-.5-1.22-1.194-1.22h-1.459v2.44h1.459c.694 0 1.194-.52 1.194-1.22m1.174 0c0 1.29-1.02 2.3-2.368 2.3h-1.459V79H41v-7h2.632C44.979 72 46 73 46 74.3m5.71 2.21l-1.205-3.16-1.204 3.16h2.409zm.412 1.08h-3.234L48.357 79H47l2.756-7h1.499L54 79h-1.345l-.533-1.41zM55 75.5c0-1.958 1.606-3.5 3.841-3.5 1.344 0 2.54.627 3.159 1.61l-1.05.56c-.387-.666-1.185-1.09-2.109-1.09-1.585 0-2.635 1.032-2.635 2.42s1.05 2.42 2.635 2.42c.924 0 1.732-.424 2.11-1.09l1.049.55c-.608.984-1.805 1.62-3.159 1.62C56.606 79 55 77.458 55 75.5M67.703 79l-2.614-3.33V79H64v-7h1.089v3.14L67.608 72h1.297l-2.68 3.41L69 79zm8.007-2.49l-1.205-3.16-1.205 3.16h2.41zm.412 1.08h-3.234L72.357 79H71l2.757-7h1.497L78 79h-1.346l-.532-1.41zM86 75.847C86 77.688 84.65 79 82.646 79 80.515 79 79 77.438 79 75.5s1.535-3.5 3.588-3.5c1.3 0 2.405.646 2.982 1.6l-.968.55c-.352-.626-1.115-1.07-2.014-1.07-1.448 0-2.464 1.051-2.464 2.43 0 1.36.998 2.41 2.532 2.41 1.242 0 2.005-.636 2.21-1.543h-2.288v-.993H86v.463zM89 79h1v-7h-1zm9-7v7h-.84l-3.086-4.75V79H93v-7h.84l3.085 4.75V72zm9 3.847c0 1.841-1.35 3.153-3.353 3.153-2.132 0-3.647-1.562-3.647-3.5s1.535-3.5 3.588-3.5c1.3 0 2.405.646 2.982 1.6l-.968.55c-.352-.626-1.114-1.07-2.014-1.07-1.447 0-2.464 1.051-2.464 2.43 0 1.36.997 2.41 2.532 2.41 1.242 0 2.005-.636 2.21-1.543h-2.288v-.993H107v.463z" fill="#000"/></g></svg>